HIERARCHY
ROOT Hips
{
	OFFSET 0.000000 0.000000 0.000000
	CHANNELS 6 Xposition Yposition Zposition Zrotation Yrotation Xrotation 
	JOINT LHipJoint
	{
		OFFSET 0.000000 0.000000 0.000000
		CHANNELS 3 Zrotation Yrotation Xrotation
		JOINT LeftUpLeg
		{
			OFFSET 1.363060 -1.794630 0.839290
			CHANNELS 3 Zrotation Yrotation Xrotation
			JOINT LeftLeg
			{
				OFFSET 2.448110 -6.726130 0.000000
				CHANNELS 3 Zrotation Yrotation Xrotation
				JOINT LeftFoot
				{
					OFFSET 2.562200 -7.039590 0.000000
					CHANNELS 3 Zrotation Yrotation Xrotation
					JOINT LeftToeBase
					{
						OFFSET 0.157640 -0.433110 2.322550
						CHANNELS 3 Zrotation Yrotation Xrotation
						End Site
						{
							OFFSET 0.000000 0.000000 0.000000
						}
					}
				}
			}
		}
	}
	JOINT RHipJoint
	{
		OFFSET 0.000000 0.000000 0.000000
		CHANNELS 3 Zrotation Yrotation Xrotation
		JOINT RightUpLeg
		{
			OFFSET -1.305520 -1.794630 0.839290
			CHANNELS 3 Zrotation Yrotation Xrotation
			JOINT RightLeg
			{
				OFFSET -2.542530 -6.985550 0.000000
				CHANNELS 3 Zrotation Yrotation Xrotation
				JOINT RightFoot
				{
					OFFSET -2.568260 -7.056230 0.000000
					CHANNELS 3 Zrotation Yrotation Xrotation
					JOINT RightToeBase
					{
						OFFSET -0.164730 -0.452590 2.363150
						CHANNELS 3 Zrotation Yrotation Xrotation
						End Site
						{
							OFFSET 0.000000 0.000000 0.000000
						}
					}
				}
			}
		}
	}
	JOINT LowerBack
	{
		OFFSET 0.000000 0.000000 0.000000
		CHANNELS 3 Zrotation Yrotation Xrotation
		JOINT Spine
		{
			OFFSET 0.028270 2.035590 -0.193380
			CHANNELS 3 Zrotation Yrotation Xrotation
			JOINT Spine1
			{
				OFFSET 0.056720 2.048850 -0.042750
				CHANNELS 3 Zrotation Yrotation Xrotation
				JOINT Neck
				{
					OFFSET 0.000000 0.000000 0.000000
					CHANNELS 3 Zrotation Yrotation Xrotation
					JOINT Neck1
					{
						OFFSET -0.054170 1.746240 0.172020
						CHANNELS 3 Zrotation Yrotation Xrotation
						JOINT Head
						{
							OFFSET 0.104070 1.761360 -0.123970
							CHANNELS 3 Zrotation Yrotation Xrotation
							End Site
							{
								OFFSET 0.000000 0.000000 0.000000
							}
						}
					}
				}
				JOINT LeftShoulder
				{
					OFFSET 0.000000 0.000000 0.000000
					CHANNELS 3 Zrotation Yrotation Xrotation
					JOINT LeftArm
					{
						OFFSET 3.362410 1.200890 -0.311210
						CHANNELS 3 Zrotation Yrotation Xrotation
						JOINT LeftForeArm
						{
							OFFSET 4.983000 -0.000000 -0.000000
							CHANNELS 3 Zrotation Yrotation Xrotation
							JOINT LeftHand
							{
								OFFSET 3.483560 -0.000000 -0.000000
								CHANNELS 3 Zrotation Yrotation Xrotation
								JOINT LeftFingerBase
								{
									OFFSET 0.000000 0.000000 0.000000
									CHANNELS 3 Zrotation Yrotation Xrotation
									JOINT LeftHandIndex1
									{
										OFFSET 0.715260 -0.000000 -0.000000
										CHANNELS 3 Zrotation Yrotation Xrotation
										End Site
										{
											OFFSET 0.000000 0.000000 0.000000
										}
									}
								}
								JOINT LThumb
								{
									OFFSET 0.000000 0.000000 0.000000
									CHANNELS 3 Zrotation Yrotation Xrotation
									End Site
									{
										OFFSET 0.000000 0.000000 0.000000
									}
								}
							}
						}
					}
				}
				JOINT RightShoulder
				{
					OFFSET 0.000000 0.000000 0.000000
					CHANNELS 3 Zrotation Yrotation Xrotation
					JOINT RightArm
					{
						OFFSET -3.136600 1.374050 -0.404650
						CHANNELS 3 Zrotation Yrotation Xrotation
						JOINT RightForeArm
						{
							OFFSET -5.241900 -0.000000 -0.000000
							CHANNELS 3 Zrotation Yrotation Xrotation
							JOINT RightHand
							{
								OFFSET -3.444170 -0.000000 -0.000000
								CHANNELS 3 Zrotation Yrotation Xrotation
								JOINT RightFingerBase
								{
									OFFSET 0.000000 0.000000 0.000000
									CHANNELS 3 Zrotation Yrotation Xrotation
									JOINT RightHandIndex1
									{
										OFFSET -0.622530 -0.000000 -0.000000
										CHANNELS 3 Zrotation Yrotation Xrotation
										End Site
										{
											OFFSET 0.000000 0.000000 0.000000
										}
									}
								}
								JOINT RThumb
								{
									OFFSET 0.000000 0.000000 0.000000
									CHANNELS 3 Zrotation Yrotation Xrotation
									End Site
									{
										OFFSET 0.000000 0.000000 0.000000
									}
								}
							}
						}
					}
				}
			}
		}
	}
}
MOTION
Frames: 9
Frame Time: 0.008333
-10.434889 17.565705 -16.012642 -106.223720 85.641661 -106.459482 3.792064 -1.157274 -0.590589 -10.222443 -19.418160 0.949785 -1.380032 8.072429 22.002093 -0.237162 7.878728 -18.217509 0.410000 -4.110500 -11.387800 -9.851330 -0.784951 -5.128293 23.264032 -7.057861 9.423498 1.913873 -0.847272 3.454902 0.449139 -9.641421 -9.453374 -0.053800 1.497400 -4.118500 4.048541 -0.368675 8.457618 0.663111 -0.274730 -0.967413 0.401699 -0.428049 -1.874638 -7.147186 -5.092968 -22.142356 5.143166 -5.172603 17.235279 2.368600 -2.429300 13.973500 6.083638 -8.200903 0.492499 -93.220024 1.675446 11.735423 10.014209 -21.107046 -3.343699 -0.344490 1.910441 -13.356533 33.451935 7.096986 3.140400 -7.125000 0.000000 0.000000 5.620000 35.646400 -1.296900 -7.612996 7.870296 2.050086 85.866240 -3.496781 19.264967 -16.327563 28.371586 -4.181997 0.140260 -1.993212 21.034121 -14.705965 -15.200997 3.662400 7.125000 0.000000 0.000000 10.735900 -43.480400 0.407600 
-10.428535 17.563946 -16.011469 -106.570531 85.608964 -106.851835 3.788324 -1.155558 -0.593154 -10.148355 -19.166789 0.871703 -1.350403 8.087035 22.070736 -0.201659 7.609295 -18.042984 0.404700 -4.084000 -11.313200 -9.860213 -0.792996 -5.129486 23.293810 -7.111087 9.496026 1.916328 -0.847714 3.459145 0.448543 -9.644775 -9.483568 -0.054600 1.508100 -4.148000 4.144966 -0.352050 8.490879 0.655325 -0.241535 -0.960400 0.322509 -0.413159 -1.876783 -7.061112 -5.099861 -22.174464 5.081353 -5.207551 17.255269 2.316700 -2.441300 13.988300 6.071963 -8.205653 0.496531 -93.113171 1.635820 12.418571 10.349098 -21.496311 -3.428664 -0.369162 1.912138 -13.782438 33.429716 7.120511 3.148700 -7.125000 0.000000 0.000000 5.609900 35.663800 -1.292100 -7.604827 7.866848 2.050811 85.858136 -3.609247 19.483589 -16.314058 28.361495 -4.171075 0.151551 -1.993918 20.813732 -14.599557 -15.257663 3.652600 7.125000 0.000000 0.000000 10.841500 -43.527700 0.398900 
-10.422572 17.561698 -16.009905 -107.004168 85.585337 -107.328249 3.781947 -1.155347 -0.596142 -10.075553 -18.891697 0.789137 -1.324161 8.092987 22.115828 -0.170574 7.350217 -17.844857 0.407800 -4.099600 -11.357000 -9.870159 -0.803190 -5.130289 23.313732 -7.169226 9.575171 1.918520 -0.847635 3.463990 0.447408 -9.644137 -9.524467 -0.055300 1.517000 -4.172500 4.220829 -0.335718 8.520109 0.651594 -0.210077 -0.954460 0.257099 -0.399525 -1.876933 -6.980125 -5.103240 -22.224671 5.029365 -5.234809 17.290245 2.271600 -2.448800 14.015900 6.061469 -8.210183 0.500743 -93.003617 1.574298 13.057493 10.680694 -21.878119 -3.516838 -0.392358 1.913743 -14.173958 33.447981 7.155798 3.169100 -7.125000 0.000000 0.000000 5.633800 35.696100 -1.293200 -7.600548 7.863761 2.048676 85.883139 -3.697069 19.574151 -16.273906 28.317222 -4.142739 0.159947 -1.986449 20.765808 -14.373546 -15.135746 3.568600 7.125000 0.000000 0.000000 11.013600 -43.393200 0.442400 
-10.416707 17.559156 -16.008536 -107.545787 85.581989 -107.907723 3.771325 -1.160121 -0.599880 -10.025670 -18.631866 0.711628 -1.302395 8.096527 22.149390 -0.146431 7.133828 -17.660228 0.422100 -4.169900 -11.555200 -9.880737 -0.816267 -5.129926 23.308744 -7.227092 9.654507 1.919547 -0.846415 3.469305 0.444805 -9.630150 -9.578958 -0.053900 1.498300 -4.121000 4.261757 -0.324496 8.537199 0.655768 -0.188989 -0.951970 0.217726 -0.391173 -1.875750 -6.920315 -5.094568 -22.276859 4.992392 -5.236973 17.335073 2.241100 -2.446200 14.049300 6.055468 -8.214279 0.505014 -92.916464 1.496726 13.585812 11.005992 -22.249131 -3.607716 -0.412722 1.915810 -14.513590 33.498071 7.197679 3.196900 -7.125000 0.000000 0.000000 5.683700 35.736900 -1.299100 -7.604337 7.860314 2.041717 85.962189 -3.720505 19.390171 -16.149799 28.181340 -4.085630 0.157565 -1.972473 21.043001 -14.106180 -14.879049 3.442300 7.125000 0.000000 0.000000 11.193400 -43.127100 0.524400 
-10.411037 17.556615 -16.007754 -108.199573 85.602556 -108.592272 3.756015 -1.170007 -0.603844 -10.009613 -18.406670 0.654475 -1.288275 8.094710 22.161811 -0.132231 6.982463 -17.499029 0.449000 -4.298900 -11.919000 -9.891579 -0.832355 -5.128025 23.272160 -7.280700 9.728956 1.918911 -0.843809 3.474874 0.440574 -9.598568 -9.644689 -0.049800 1.440600 -3.962000 4.266354 -0.323944 8.538484 0.669285 -0.185548 -0.954235 0.210575 -0.392009 -1.874096 -6.886368 -5.066997 -22.315878 4.964074 -5.202435 17.384066 2.224600 -2.430300 14.080800 6.054884 -8.218183 0.508398 -92.869425 1.411223 13.969252 11.324706 -22.608724 -3.700152 -0.429938 1.918555 -14.800788 33.552549 7.237664 3.223900 -7.125000 0.000000 0.000000 5.736100 35.775500 -1.305700 -7.613568 7.855473 2.031742 86.068509 -3.693355 19.006481 -15.955898 27.972592 -4.012584 0.144224 -1.958099 21.554213 -13.917229 -14.621836 3.335500 7.125000 0.000000 0.000000 11.305900 -42.868100 0.603100 
-10.405270 17.554659 -16.007852 -108.933534 85.643829 -109.354046 3.736987 -1.183889 -0.607520 -10.027474 -18.220855 0.622070 -1.281179 8.088703 22.156578 -0.127346 6.893088 -17.362165 0.486500 -4.472400 -12.409800 -9.902410 -0.850667 -5.124675 23.207080 -7.327606 9.796384 1.916669 -0.839938 3.480445 0.435039 -9.552157 -9.713917 -0.043800 1.350900 -3.714900 4.243755 -0.337570 8.525629 0.690969 -0.204162 -0.961204 0.233866 -0.404098 -1.873280 -6.870700 -5.017969 -22.332133 4.931844 -5.130548 17.430715 2.214400 -2.401800 14.103200 6.058139 -8.222386 0.509847 -92.865085 1.327459 14.219169 11.638309 -22.958520 -3.792395 -0.444861 1.921756 -15.052399 33.576253 7.267919 3.241300 -7.125000 0.000000 0.000000 5.761300 35.802100 -1.307800 -7.621245 7.848544 2.022870 86.148396 -3.665938 18.652343 -15.756766 27.762736 -3.949101 0.126026 -1.950511 22.044405 -13.900877 -14.509553 3.303900 7.125000 0.000000 0.000000 11.299700 -42.761500 0.632900 
-10.399307 17.553095 -16.008927 -109.657727 85.696468 -110.108230 3.717091 -1.198652 -0.610132 -10.070265 -18.068690 0.612788 -1.278582 8.080957 22.142569 -0.128366 6.845775 -17.245385 0.529500 -4.663100 -12.950200 -9.912228 -0.868842 -5.120878 23.124624 -7.366669 9.858465 1.913379 -0.835167 3.485823 0.428980 -9.498736 -9.777005 -0.037300 1.247100 -3.429000 4.209650 -0.364908 8.504180 0.717727 -0.242945 -0.971496 0.278543 -0.426070 -1.874027 -6.857905 -4.952013 -22.323633 4.886189 -5.033215 17.468968 2.201500 -2.365300 14.112300 6.062126 -8.227064 0.509016 -92.888749 1.253401 14.387340 11.949708 -23.301875 -3.883293 -0.459162 1.924861 -15.294066 33.543947 7.286506 3.245300 -7.125000 0.000000 0.000000 5.738700 35.813900 -1.300900 -7.620921 7.839812 2.018811 86.158362 -3.689270 18.558483 -15.621142 27.625941 -3.916148 0.111110 -1.953631 22.262951 -14.070335 -14.612181 3.366900 7.125000 0.000000 0.000000 11.177700 -42.874300 0.594300 
-10.393247 17.552118 -16.010785 -110.242389 85.750965 -110.726982 3.700276 -1.210369 -0.610947 -10.125985 -17.940670 0.621064 -1.277422 8.074249 22.129482 -0.131068 6.817161 -17.147354 0.571300 -4.840800 -13.454900 -9.919036 -0.883519 -5.118183 23.038004 -7.396353 9.918927 1.909806 -0.829877 3.490859 0.423640 -9.447252 -9.826623 -0.031600 1.147900 -3.155800 4.179841 -0.400720 8.480976 0.745145 -0.293439 -0.983142 0.329874 -0.453279 -1.876688 -6.834156 -4.879572 -22.295645 4.827350 -4.931454 17.494780 2.180700 -2.327700 14.108200 6.063680 -8.231754 0.506733 -92.913340 1.193866 14.546923 12.260039 -23.640582 -3.972136 -0.474487 1.927203 -15.549577 33.456198 7.297418 3.238700 -7.125000 0.000000 0.000000 5.669900 35.816000 -1.284900 -7.610795 7.830605 2.020476 86.092877 -3.781812 18.810197 -15.580603 27.594511 -3.917139 0.105508 -1.965264 22.119631 -14.342165 -14.881525 3.495900 7.125000 0.000000 0.000000 11.000600 -43.154500 0.507600 
-10.387088 17.551238 -16.012837 -110.554925 85.801083 -111.077347 3.690367 -1.215555 -0.609548 -10.184584 -17.827746 0.640181 -1.275922 8.070782 22.124167 -0.132222 6.790886 -17.070373 0.607000 -4.986900 -13.871100 -9.920316 -0.891389 -5.118154 22.956857 -7.415165 9.980939 1.906565 -0.824330 3.495465 0.419370 -9.403960 -9.859937 -0.027300 1.066800 -2.932600 4.165448 -0.435696 8.460972 0.768711 -0.342483 -0.994257 0.372164 -0.478451 -1.881302 -6.795102 -4.814871 -22.258079 4.767660 -4.848006 17.507595 2.154300 -2.296400 14.095400 6.060836 -8.235328 0.504649 -92.911279 1.148195 14.764638 12.567267 -23.974071 -4.059164 -0.491551 1.928346 -15.830171 33.343549 7.307073 3.229300 -7.125000 0.000000 0.000000 5.580800 35.817000 -1.264500 -7.594694 7.822942 2.025638 85.987988 -3.921277 19.300215 -15.617349 27.644734 -3.938494 0.110342 -1.978457 21.730478 -14.577537 -15.180924 3.626700 7.125000 0.000000 0.000000 10.860300 -43.461300 0.417600 
